<svg width="267" height="120" viewBox="0 0 267 120" fill="none" xmlns="http://www.w3.org/2000/svg">
<path d="M78.7062 102.719C83.8876 103.569 92.1089 104.656 98.2575 104.656C104.544 104.656 108.12 101.256 108.966 94.4735L109.087 93.4652C106.237 94.0781 102.973 94.434 100.192 94.434C86.1329 94.434 79.0689 89.0361 79.0689 73.1587C79.0689 70.0148 79.3452 66.4755 79.9152 62.4617C83.2831 38.003 92.627 30.4498 110.589 30.4498C118.206 30.4498 126.652 32.3085 132.213 36.7177C131.937 41.0084 124.182 98.1117 124.182 98.1117C121.833 115.136 110.745 119.308 98.2921 119.308C90.6753 119.308 82.2987 117.884 76.8236 116.698C76.8063 116.698 76.7891 116.698 76.7718 116.678L78.7062 102.719ZM94.9587 70.0742C94.9587 75.828 96.9622 79.7627 105.045 79.7627C106.928 79.7627 109.329 79.3673 111.142 78.7939C111.142 78.7939 115.201 48.7988 115.322 46.2086C113.698 45.4177 111.038 44.9827 108.569 44.9827C98.9138 44.9827 96.7894 54.0386 95.6323 62.4419C95.2696 65.2101 94.9587 67.7805 94.9587 70.0742Z" fill="#FBFBFB"/>
<path d="M144.597 93.6629H129.243C129.243 93.6629 136.738 40.3757 137.654 36.1444C144.735 31.7746 153.561 29.9753 162.369 29.9753C177.965 29.9753 181.852 36.1246 181.852 45.5759C181.852 48.1463 181.541 50.9738 181.143 53.9793L175.651 93.6827H160.245L165.547 55.3634C165.754 53.6629 165.91 52.2195 165.91 50.9541C165.91 46.5052 164.148 44.6466 158.362 44.607C155.996 44.607 153.302 45.0618 151.557 45.833C150.987 48.3441 144.597 93.6629 144.597 93.6629Z" fill="#FBFBFB"/>
<path d="M183.734 63.3119C187.016 39.5848 194.822 30.5487 212.923 30.5487C227.759 30.5487 233.96 36.6782 233.96 51.7647C233.96 55.1261 233.649 59.0015 233.044 63.3119C229.763 86.9798 221.991 96.1147 203.821 96.1147C189.037 96.1147 182.802 90.1236 182.802 74.958C182.819 71.5571 183.147 67.6817 183.734 63.3119ZM205.807 81.1666C213.078 81.1666 215.427 77.3307 217.362 63.3119C217.897 59.397 218.208 56.2927 218.208 53.8211C218.208 47.4741 216.205 45.477 210.971 45.477C203.735 45.477 201.42 49.135 199.451 63.3317C198.881 67.3851 198.57 70.5685 198.57 73.0401C198.57 79.3475 200.608 81.1666 205.807 81.1666Z" fill="#FBFBFB"/>
<path d="M64.9235 30.7662H80.537L71.8321 93.6629H56.2187L64.9235 30.7662ZM82.4368 18.0524C81.5387 24.5576 79.138 27.0885 72.8511 27.0885C67.5661 27.0885 65.5108 25.3287 65.5108 20.9392C65.5108 20.089 65.5971 19.1201 65.7353 18.0524C66.6334 11.5472 69.0514 9.01633 75.321 9.01633C80.5715 9.01633 82.6614 10.7761 82.6614 15.2052C82.6614 16.0554 82.575 16.9847 82.4368 18.0524Z" fill="#FBFBFB"/>
<path d="M42.3842 18.3885C48.4638 18.3885 54.9406 19.5354 59.9839 20.5438L62.3155 3.71727C56.9096 2.33319 48.9992 0.988647 41.0371 0.988647C22.6775 0.988647 11.6064 7.51361 8.79119 27.919C8.48031 30.0939 8.34213 32.0119 8.34213 33.831C8.34213 46.7029 15.6652 51.5077 27.3926 55.9961C33.6103 58.349 37.531 60.1681 37.531 65.4869C37.531 66.0801 37.4964 66.6733 37.3928 67.3456C36.3565 74.701 32.0559 76.876 24.5255 76.876C18.446 76.876 9.39569 75.6896 3.88609 74.701L1.48535 92.002C7.42674 93.4849 14.4735 94.6318 22.8675 94.6318C41.6761 94.6318 53.5071 87.1973 56.3569 66.4756C56.7023 63.9249 56.9096 61.5917 56.9096 59.476C56.9096 47.8695 51.5036 41.9575 38.7572 37.7855C31.365 35.3535 27.1681 34.1276 27.1681 28.4528C27.1681 27.8201 27.2026 27.1874 27.3062 26.436C28.3943 18.6654 36.4429 18.3885 42.3842 18.3885Z" fill="#FBFBFB"/>
<path d="M239.176 36.8166C243.079 33.0203 245.566 27.3653 245.566 21.0183C245.566 19.2783 245.376 17.5976 245.031 15.9763C235.756 8.26495 222.837 3.69748 222.837 3.69748L220.505 20.524C220.505 20.5437 234.547 23.0351 239.176 36.8166Z" fill="#971720"/>
<path d="M254.081 29.5205C253.269 24.3598 249.59 19.7726 245.031 15.9763C245.376 17.5976 245.566 19.2783 245.566 21.0183C245.566 27.3455 243.079 33.0005 239.176 36.8166C239.314 37.2318 239.452 37.6668 239.573 38.1018C243.269 51.4088 233.511 83.9743 233.511 83.9743C233.511 83.9743 255.601 39.1893 254.081 29.5205Z" fill="url(#paint0_linear)"/>
<path d="M129.07 112.585C129.07 112.368 129.139 112.17 129.277 111.972C129.415 111.775 129.553 111.676 129.726 111.676C129.83 111.676 129.968 111.755 130.123 111.933C130.279 112.091 130.452 112.289 130.624 112.486C130.797 112.684 131.073 112.882 131.436 113.04C131.816 113.198 132.231 113.297 132.697 113.297C133.457 113.297 134.044 113.08 134.476 112.664C134.908 112.249 135.115 111.636 135.115 110.826C135.115 110.094 134.925 109.501 134.528 109.046C134.13 108.591 133.647 108.235 133.094 107.998C132.541 107.761 131.971 107.504 131.419 107.227C130.849 106.95 130.383 106.535 129.985 105.961C129.588 105.388 129.398 104.676 129.398 103.767C129.398 103.075 129.519 102.462 129.743 101.948C129.968 101.434 130.279 101.038 130.676 100.781C131.073 100.524 131.471 100.326 131.885 100.208C132.3 100.089 132.749 100.03 133.232 100.03C133.958 100.03 134.649 100.148 135.305 100.386C135.961 100.623 136.289 100.959 136.289 101.374C136.289 101.552 136.238 101.77 136.117 101.967C135.996 102.185 135.858 102.284 135.668 102.284C135.616 102.284 135.357 102.165 134.873 101.908C134.39 101.651 133.837 101.532 133.25 101.532C132.541 101.532 131.972 101.691 131.54 102.027C131.108 102.363 130.883 102.877 130.883 103.609C130.883 104.221 131.073 104.716 131.471 105.091C131.868 105.467 132.351 105.783 132.904 106.001C133.474 106.218 134.027 106.495 134.579 106.772C135.132 107.069 135.616 107.543 136.013 108.176C136.41 108.828 136.6 109.639 136.6 110.648C136.6 112.012 136.255 113.06 135.547 113.752C134.856 114.444 133.923 114.8 132.766 114.8C131.73 114.8 130.849 114.543 130.141 114.048C129.433 113.554 129.07 113.08 129.07 112.585Z" fill="#FBFBFB"/>
<path d="M137.533 110.924V108.888C137.533 107.86 137.878 106.97 138.552 106.199C139.226 105.428 140.037 105.052 140.97 105.052C141.903 105.052 142.714 105.428 143.388 106.199C144.079 106.95 144.424 107.86 144.424 108.888V110.924C144.424 111.933 144.079 112.842 143.388 113.613C142.697 114.404 141.885 114.8 140.97 114.8C140.055 114.8 139.243 114.404 138.569 113.633C137.878 112.862 137.533 111.953 137.533 110.924ZM138.984 110.924C138.984 111.537 139.174 112.091 139.571 112.566C139.968 113.04 140.435 113.277 140.97 113.277C141.523 113.277 141.989 113.04 142.386 112.546C142.783 112.071 142.973 111.518 142.973 110.905V108.888C142.973 108.295 142.783 107.761 142.386 107.286C141.989 106.812 141.523 106.574 140.97 106.574C140.417 106.574 139.951 106.812 139.571 107.286C139.174 107.761 138.984 108.295 138.984 108.888V110.924Z" fill="#FBFBFB"/>
<path d="M145.892 114.048V100.049C145.892 99.8715 145.961 99.7331 146.1 99.6342C146.238 99.5354 146.41 99.476 146.618 99.476C146.825 99.476 146.998 99.5354 147.136 99.6342C147.274 99.7331 147.343 99.8715 147.343 100.049V114.048C147.343 114.187 147.274 114.325 147.119 114.464C146.98 114.582 146.808 114.661 146.6 114.661C146.393 114.661 146.238 114.602 146.1 114.483C145.961 114.345 145.892 114.207 145.892 114.048Z" fill="#FBFBFB"/>
<path d="M149.053 110.964V105.784C149.053 105.625 149.122 105.487 149.278 105.368C149.416 105.25 149.588 105.19 149.796 105.19C149.986 105.19 150.141 105.25 150.297 105.388C150.435 105.507 150.521 105.645 150.521 105.803V110.984C150.521 111.577 150.711 112.111 151.108 112.605C151.506 113.08 151.972 113.317 152.525 113.317C153.06 113.317 153.526 113.08 153.924 112.605C154.321 112.131 154.511 111.597 154.511 110.984V105.784C154.511 105.645 154.58 105.507 154.735 105.388C154.873 105.269 155.046 105.21 155.253 105.21C155.461 105.21 155.633 105.269 155.772 105.388C155.91 105.507 155.979 105.645 155.979 105.803V111.023C155.979 112.051 155.633 112.941 154.96 113.712C154.286 114.483 153.474 114.859 152.542 114.859C151.592 114.859 150.78 114.483 150.107 113.712C149.381 112.882 149.053 111.992 149.053 110.964Z" fill="#FBFBFB"/>
<path d="M157.205 110.924V108.927C157.205 107.781 157.499 106.851 158.086 106.139C158.673 105.428 159.537 105.052 160.677 105.052C161.402 105.052 162.007 105.19 162.507 105.487C163.008 105.783 163.25 106.1 163.25 106.416C163.25 106.594 163.181 106.792 163.06 106.97C162.939 107.148 162.801 107.247 162.628 107.247C162.577 107.247 162.387 107.128 162.024 106.911C161.661 106.693 161.247 106.574 160.78 106.574C160.089 106.574 159.554 106.772 159.191 107.187C158.829 107.603 158.656 108.176 158.656 108.927V110.905C158.656 112.467 159.364 113.258 160.798 113.258C161.281 113.258 161.713 113.139 162.076 112.902C162.438 112.664 162.646 112.546 162.697 112.546C162.887 112.546 163.043 112.625 163.164 112.803C163.285 112.981 163.354 113.159 163.354 113.337C163.354 113.653 163.129 113.95 162.697 114.246C162.248 114.543 161.696 114.721 161.039 114.76L160.815 115.788C161.368 115.808 161.799 115.947 162.076 116.223C162.352 116.5 162.49 116.836 162.49 117.252C162.49 117.687 162.352 118.062 162.076 118.379C161.799 118.695 161.402 118.873 160.867 118.873C160.556 118.873 160.245 118.833 159.934 118.735C159.623 118.636 159.468 118.517 159.468 118.339C159.468 118.24 159.502 118.122 159.554 117.983C159.606 117.845 159.692 117.766 159.779 117.766C159.796 117.766 159.917 117.805 160.124 117.904C160.331 118.003 160.538 118.043 160.763 118.043C161.368 118.043 161.678 117.805 161.678 117.311C161.678 116.836 161.333 116.56 160.642 116.5L159.899 116.441L160.279 114.78C159.26 114.701 158.5 114.305 158 113.594C157.447 112.902 157.205 112.012 157.205 110.924Z" fill="#FBFBFB"/>
<path d="M163.924 110.924V108.888C163.924 107.86 164.269 106.97 164.943 106.199C165.616 105.428 166.428 105.052 167.361 105.052C168.293 105.052 169.105 105.428 169.779 106.199C170.47 106.95 170.815 107.86 170.815 108.888V110.924C170.815 111.933 170.47 112.842 169.779 113.613C169.088 114.404 168.276 114.8 167.361 114.8C166.445 114.8 165.634 114.404 164.96 113.633C164.269 112.862 163.924 111.953 163.924 110.924ZM164.597 101.987C164.597 101.631 164.77 101.354 165.115 101.157C165.461 100.959 165.789 100.86 166.117 100.86C166.428 100.86 166.825 100.959 167.309 101.176C167.793 101.374 168.173 101.493 168.483 101.493C168.777 101.493 169.036 101.394 169.278 101.176C169.52 100.979 169.675 100.86 169.744 100.86C169.865 100.86 169.969 100.939 170.055 101.078C170.124 101.216 170.176 101.354 170.176 101.493C170.176 101.888 170.021 102.165 169.692 102.343C169.364 102.521 169.036 102.62 168.708 102.62C168.363 102.62 167.948 102.521 167.482 102.304C167.015 102.106 166.635 101.987 166.325 101.987C166.031 101.987 165.755 102.086 165.495 102.284C165.236 102.481 165.064 102.58 164.995 102.58C164.874 102.58 164.77 102.521 164.701 102.383C164.632 102.244 164.597 102.126 164.597 101.987ZM165.375 110.924C165.375 111.537 165.565 112.091 165.962 112.566C166.359 113.04 166.825 113.277 167.361 113.277C167.913 113.277 168.38 113.04 168.777 112.546C169.174 112.071 169.364 111.518 169.364 110.905V108.888C169.364 108.295 169.174 107.761 168.777 107.286C168.38 106.812 167.913 106.574 167.361 106.574C166.808 106.574 166.342 106.812 165.962 107.286C165.565 107.761 165.375 108.295 165.375 108.888V110.924Z" fill="#FBFBFB"/>
<path d="M171.817 110.924V108.828C171.817 107.8 172.162 106.911 172.836 106.179C173.509 105.428 174.338 105.052 175.288 105.052C176.204 105.052 176.981 105.408 177.637 106.1C178.294 106.792 178.639 107.662 178.639 108.71C178.639 109.105 178.605 109.422 178.518 109.659C178.432 109.896 178.311 110.054 178.138 110.173C177.965 110.272 177.81 110.331 177.672 110.371C177.534 110.391 177.326 110.41 177.085 110.41H173.268V111.003C173.268 111.735 173.492 112.328 173.958 112.763C174.425 113.198 175.012 113.416 175.755 113.416C176.135 113.416 176.48 113.356 176.756 113.218C177.05 113.08 177.275 112.961 177.447 112.823C177.62 112.704 177.758 112.625 177.862 112.625C178.017 112.625 178.155 112.704 178.276 112.882C178.397 113.04 178.449 113.218 178.449 113.396C178.449 113.712 178.19 114.009 177.655 114.325C177.119 114.642 176.463 114.8 175.686 114.8C174.546 114.8 173.613 114.444 172.888 113.732C172.18 113.02 171.817 112.091 171.817 110.924ZM173.268 109.244H176.497C176.791 109.244 176.998 109.204 177.102 109.105C177.206 109.026 177.257 108.848 177.257 108.591C177.257 107.998 177.067 107.464 176.687 107.009C176.307 106.555 175.824 106.337 175.271 106.337C174.718 106.337 174.252 106.555 173.855 106.97C173.458 107.385 173.268 107.899 173.268 108.512V109.244Z" fill="#FBFBFB"/>
<path d="M179.295 113.277C179.295 113.099 179.347 112.941 179.451 112.763C179.554 112.605 179.675 112.506 179.813 112.506C179.9 112.506 180.038 112.585 180.211 112.763C180.383 112.921 180.643 113.099 180.953 113.258C181.282 113.416 181.662 113.495 182.111 113.495C182.698 113.495 183.112 113.376 183.371 113.139C183.63 112.902 183.769 112.585 183.769 112.229C183.769 111.794 183.63 111.438 183.337 111.162C183.043 110.905 182.698 110.707 182.266 110.568C181.852 110.43 181.437 110.292 181.005 110.133C180.591 109.975 180.228 109.698 179.934 109.323C179.641 108.947 179.503 108.453 179.503 107.82C179.503 107.069 179.744 106.416 180.211 105.863C180.677 105.309 181.402 105.032 182.37 105.032C182.991 105.032 183.544 105.131 184.062 105.348C184.58 105.566 184.822 105.803 184.822 106.08C184.822 106.238 184.77 106.416 184.65 106.614C184.546 106.812 184.408 106.911 184.235 106.911C184.183 106.911 183.959 106.812 183.561 106.614C183.164 106.416 182.767 106.317 182.37 106.317C181.834 106.317 181.437 106.456 181.178 106.752C180.919 107.049 180.781 107.365 180.781 107.741C180.781 108.117 180.919 108.413 181.212 108.631C181.506 108.848 181.869 109.006 182.283 109.145C182.715 109.263 183.13 109.422 183.544 109.58C183.959 109.758 184.321 110.054 184.615 110.47C184.909 110.885 185.047 111.438 185.047 112.111C185.047 112.921 184.788 113.574 184.287 114.048C183.769 114.523 183.061 114.76 182.145 114.76C181.351 114.76 180.677 114.602 180.124 114.266C179.589 113.989 179.295 113.653 179.295 113.277Z" fill="#FBFBFB"/>
<path d="M188.536 100.722C188.536 100.544 188.639 100.366 188.829 100.247C189.019 100.109 189.226 100.049 189.434 100.049C189.727 100.049 189.9 100.168 189.969 100.425L192.923 112.289L194.581 104.973C194.667 104.617 194.909 104.459 195.341 104.459C195.738 104.459 195.997 104.637 196.066 104.973L197.741 112.289L200.678 100.425C200.747 100.168 200.937 100.049 201.247 100.049C201.455 100.049 201.662 100.109 201.852 100.247C202.042 100.386 202.128 100.544 202.128 100.722C202.128 100.801 202.128 100.86 202.111 100.9L198.674 114.187C198.57 114.582 198.259 114.76 197.759 114.76C197.223 114.76 196.93 114.563 196.843 114.187L195.358 107.583L193.838 114.167C193.752 114.563 193.441 114.74 192.957 114.74C192.456 114.74 192.163 114.543 192.059 114.167L188.605 100.88C188.536 100.821 188.536 100.761 188.536 100.722Z" fill="#FBFBFB"/>
<path d="M201.852 110.924V108.828C201.852 107.8 202.197 106.911 202.871 106.179C203.545 105.428 204.374 105.052 205.324 105.052C206.239 105.052 207.016 105.408 207.672 106.1C208.329 106.792 208.674 107.662 208.674 108.71C208.674 109.105 208.64 109.422 208.553 109.659C208.467 109.896 208.346 110.054 208.173 110.173C208.001 110.272 207.845 110.331 207.707 110.371C207.569 110.391 207.362 110.41 207.12 110.41H203.303V111.003C203.303 111.735 203.527 112.328 203.994 112.763C204.46 113.198 205.047 113.416 205.79 113.416C206.17 113.416 206.515 113.356 206.792 113.218C207.085 113.08 207.31 112.961 207.482 112.823C207.655 112.704 207.793 112.625 207.897 112.625C208.052 112.625 208.191 112.704 208.312 112.882C208.432 113.04 208.484 113.218 208.484 113.396C208.484 113.712 208.225 114.009 207.69 114.325C207.154 114.642 206.498 114.8 205.721 114.8C204.581 114.8 203.648 114.444 202.923 113.732C202.197 113.02 201.852 112.091 201.852 110.924ZM203.286 109.244H206.515C206.809 109.244 207.016 109.204 207.12 109.105C207.223 109.026 207.275 108.848 207.275 108.591C207.275 107.998 207.085 107.464 206.705 107.009C206.325 106.555 205.842 106.337 205.289 106.337C204.736 106.337 204.27 106.555 203.873 106.97C203.476 107.385 203.286 107.899 203.286 108.512V109.244Z" fill="#FBFBFB"/>
<path d="M209.849 114.048V100.069C209.849 99.8907 209.918 99.7523 210.056 99.6535C210.194 99.5546 210.367 99.4953 210.574 99.4953C210.781 99.4953 210.954 99.5546 211.092 99.6535C211.23 99.7523 211.299 99.8907 211.299 100.069V106.594C211.507 106.159 211.818 105.803 212.215 105.506C212.612 105.21 213.061 105.051 213.597 105.051C214.443 105.051 215.186 105.427 215.79 106.178C216.412 106.93 216.723 107.839 216.723 108.887V110.924C216.723 111.932 216.412 112.842 215.79 113.613C215.168 114.404 214.46 114.799 213.648 114.799C213.13 114.799 212.647 114.641 212.198 114.325C211.749 114.008 211.438 113.652 211.23 113.217V114.028C211.23 114.186 211.161 114.325 211.023 114.463C210.885 114.582 210.729 114.641 210.557 114.641C210.367 114.641 210.194 114.582 210.056 114.463C209.918 114.345 209.849 114.206 209.849 114.048ZM211.299 111.458C211.299 111.794 211.507 112.17 211.904 112.624C212.318 113.059 212.768 113.297 213.286 113.297C213.804 113.297 214.27 113.059 214.667 112.565C215.065 112.09 215.255 111.537 215.255 110.924V108.907C215.255 108.314 215.065 107.78 214.667 107.305C214.27 106.831 213.804 106.594 213.268 106.594C212.75 106.594 212.284 106.811 211.887 107.246C211.489 107.681 211.299 108.235 211.299 108.927V111.458Z" fill="#FBFBFB"/>
<path d="M260.126 0.672272C263.131 0.672272 265.497 3.38112 265.497 6.82156C265.497 10.262 263.131 12.9708 260.126 12.9708C257.121 12.9708 254.755 10.262 254.755 6.82156C254.755 3.38112 257.121 0.672272 260.126 0.672272ZM260.126 1.93772C257.76 1.93772 255.86 4.11271 255.86 6.82156C255.86 9.5304 257.76 11.7054 260.126 11.7054C262.492 11.7054 264.392 9.5304 264.392 6.82156C264.392 4.11271 262.492 1.93772 260.126 1.93772ZM259.176 10.262H258.071V3.20317H260.281C262.026 3.20317 262.648 3.93475 262.648 5.2002C262.648 6.10974 262.181 6.82156 261.387 6.99951L262.648 10.0643H261.387L260.126 7.17746H259.021V10.2422H259.176V10.262ZM259.176 4.29066V6.28769H260.126C261.076 6.28769 261.542 5.93179 261.542 5.2002C261.542 4.46861 261.076 4.29066 260.126 4.29066H259.176Z" fill="#FBFBFB"/>
<defs>
<linearGradient id="paint0_linear" x1="233.514" y1="49.978" x2="254.161" y2="49.978" gradientUnits="userSpaceOnUse">
<stop stop-color="#801119"/>
<stop offset="0.0189" stop-color="#84121A"/>
<stop offset="0.2054" stop-color="#A71822"/>
<stop offset="0.3958" stop-color="#C51A26"/>
<stop offset="0.5895" stop-color="#DB1B2A"/>
<stop offset="0.7883" stop-color="#EA1C2B"/>
<stop offset="1" stop-color="#F31B2C"/>
</linearGradient>
</defs>
</svg>
